<svg version="1.1" xmlns="http://www.w3.org/2000/svg" style="display: block;" viewBox="0 0 2048 2048" width="1024" height="1024" preserveAspectRatio="none">
<path transform="translate(0,0)" fill="rgb(72,55,30)" d="M 933.935 204.496 C 977.717 203.991 1021.5 203.931 1065.29 204.317 C 1066.64 225.526 1065.17 254.075 1065.56 276.151 C 1066.68 339.551 1064.1 405.136 1065.89 468.307 C 1041.36 468.618 1016.82 468.657 992.284 468.426 C 937.196 468.323 877.819 469.051 836.313 510.993 C 769.275 578.735 779.615 694.774 778.743 781.316 L 1118.74 781.057 C 1118.24 854.697 1118.23 928.339 1118.7 1001.98 C 1006.42 1000.67 891.331 1002.22 778.69 1002.12 C 779.394 1022.71 778.743 1045.76 778.748 1066.6 L 778.884 1190.28 L 778.177 1603.98 L 778.01 1766.9 C 778.054 1777.62 778.92 1832.2 777.736 1837.55 C 775.182 1839.29 772.509 1838.63 769.249 1838.45 L 501.007 1839.31 C 502.076 1823.76 501.698 1804.07 501.704 1788.21 L 501.676 1707.85 L 501.701 1459.53 L 501.726 1160.44 L 501.672 1061.03 C 501.651 1041.99 502.043 1020.89 501.112 1002 L 298.63 1001.86 C 300.152 930.233 298.714 853.499 298.685 781.489 C 318.847 782.593 350.944 781.611 372.037 781.628 C 415.076 781.929 458.116 781.786 501.152 781.198 C 501.216 621.405 501.714 462.997 614.544 336.732 C 701.165 239.797 809.519 211.776 933.935 204.496 z"/>
<path transform="translate(0,0)" fill="rgb(72,55,30)" d="M 1472.42 698.619 C 1475.23 698.439 1477.12 698.439 1479.91 698.476 C 1480.15 698.839 1480.4 699.203 1480.64 699.566 C 1476.82 725.149 1473.26 761.923 1470.66 786.781 L 1575.39 850.422 C 1595.45 862.474 1616.83 874.411 1636.22 887.357 C 1650.76 897.073 1655.78 908.795 1658.01 925.992 C 1658.01 925.992 1658.01 925.992 1658.01 925.992 C 1660.1 943.366 1661.97 972.557 1651.47 987.232 C 1642.85 999.281 1614.25 998.319 1600.32 999.64 C 1576.95 1001.86 1553.09 1002.68 1529.63 1005.26 C 1566.88 1025.33 1610.89 1051.65 1645.53 1075.39 C 1666.13 1089.5 1671.23 1164.01 1646.81 1177.71 C 1639.74 1181.67 1611.8 1182.47 1601.71 1183.07 L 1530.99 1187.21 C 1541.58 1195.76 1562.29 1206.11 1574.8 1212.98 C 1590.15 1221.48 1605.36 1230.24 1620.42 1239.25 C 1626.79 1243.02 1639.01 1249.87 1644.88 1254.9 C 1667.7 1274.49 1672.46 1330.91 1654.88 1354.77 C 1652.58 1357.89 1646.35 1361.69 1642.53 1362.05 C 1606.75 1365.46 1569.79 1367.94 1533.82 1369.39 L 1600.01 1408.99 C 1637.71 1431.05 1663.9 1439.01 1667.59 1486.5 C 1668.78 1501.71 1669.09 1539.89 1649.15 1544.66 C 1641.3 1546.53 1623.37 1547.02 1614.77 1547.59 L 1536.96 1552.57 C 1548.65 1561.4 1561.44 1568.58 1573.89 1576.32 C 1590.93 1587.1 1608.02 1597.79 1625.16 1608.4 C 1651.97 1624.96 1668.14 1629.9 1671.06 1664.66 C 1672.26 1678.95 1674.16 1720.97 1654.78 1724.91 C 1635.49 1728.83 1612.54 1730.39 1593.06 1732.35 L 1469 1744.24 L 1468.99 1842.69 C 1450.69 1841.06 1406.98 1842.3 1386.75 1842.31 C 1362.05 1842.32 1335.31 1841.88 1310.81 1842.76 C 1311 1805.28 1309.4 1767.07 1309.97 1729.67 C 1310.37 1703.5 1305.3 1645.86 1325.42 1628.29 L 1440.81 1619 C 1406.74 1593.88 1365.76 1573.1 1330.64 1548.96 C 1313.89 1537.44 1308.93 1514.05 1308.84 1494.78 C 1308.78 1480.76 1310.05 1452.19 1326.39 1447.45 C 1362.19 1441.32 1398.96 1439.64 1435.05 1434.5 C 1403.7 1412.76 1366.01 1394.85 1333.52 1373.71 C 1303.98 1354.49 1299.65 1300.95 1314.37 1271.85 C 1319.38 1261.96 1347.35 1262.3 1356.78 1260.56 C 1381.72 1257.14 1407.9 1256.21 1432.84 1252.55 C 1399.94 1228.72 1359.74 1210.16 1326.78 1186.75 C 1302.32 1169.38 1296.1 1110.75 1312.79 1087.3 C 1317.41 1080.8 1350.18 1078.68 1359.69 1077.62 L 1430.04 1069.94 C 1423.05 1064.23 1411.29 1057.34 1403.38 1052.53 C 1388.16 1043.24 1372.88 1034.06 1357.54 1024.97 C 1325 1005.96 1307.52 999.755 1301.62 958.42 C 1299.24 941.733 1298.92 921.418 1309.11 907.008 C 1317.84 894.66 1333.58 893.375 1347.24 892.709 C 1375.41 890.739 1404.16 889.384 1432.2 885.77 C 1406.06 870.54 1379.41 856.305 1353.39 841.049 C 1342.71 834.785 1321.76 823.725 1313.94 815.332 C 1295.56 795.599 1298.72 773.52 1300.96 749.26 C 1302.23 735.45 1303.7 719.037 1304.2 705.409 L 1407.04 701.556 C 1427.38 700.861 1452.48 700.707 1472.42 698.619 z"/>
<path transform="translate(0,0)" fill="rgb(72,55,30)" d="M 1437.56 204.41 C 1437.83 204.363 1438.11 204.317 1438.38 204.27 C 1484.26 199.403 1533.03 213.182 1568.07 242.005 C 1691.14 343.237 1627.86 520.279 1472.1 537.378 C 1422.61 542.935 1375.32 526.605 1337.12 495.468 C 1303.31 468.063 1281.91 428.231 1277.73 384.908 C 1274.1 342.789 1287.34 300.95 1314.54 268.585 C 1345.33 231.62 1389.62 208.511 1437.56 204.41 z"/>
</svg>